<svg width="25" height="25" viewBox="0 0 25 25" fill="current" xmlns="http://www.w3.org/2000/svg">
<path d="M10.4801 0.529943H10.6872L10.715 0.502075C16.1236 0.611631 20.49 5.0457 20.49 10.4801C20.49 12.1821 20.0076 13.8066 19.2346 15.2093L19.0109 15.6154L19.3989 15.8691C19.5428 15.9631 19.6765 16.0718 19.798 16.1933L19.7981 16.1934L22.7924 19.1877L22.8028 19.1981L22.8138 19.2079C23.074 19.4391 23.2841 19.7211 23.4314 20.0365C23.5787 20.3518 23.6599 20.694 23.6702 21.0419L24.1699 21.0272L23.6702 21.0419C23.6804 21.3899 23.6194 21.7362 23.491 22.0597C23.3625 22.3832 23.1693 22.677 22.9232 22.9232C22.677 23.1693 22.3832 23.3625 22.0597 23.491C21.7362 23.6194 21.3899 23.6804 21.0419 23.6702C20.694 23.6599 20.3518 23.5787 20.0365 23.4314C19.7211 23.2841 19.4391 23.074 19.2079 22.8138L19.1981 22.8028L19.1877 22.7924L16.1934 19.7981L16.1771 19.7818L16.1594 19.7671C16.0416 19.6692 15.933 19.5606 15.8351 19.4428L15.5711 19.1251L15.2093 19.3245C13.8225 20.0886 12.1701 20.49 10.4801 20.49C4.97719 20.49 0.5 16.0129 0.5 10.51C0.5 5.00714 4.97719 0.529943 10.4801 0.529943ZM10.4801 2.52424H10.2729L10.2404 2.55683C5.90064 2.66654 2.46436 6.17186 2.46436 10.5399C2.46436 14.9782 6.01189 18.5257 10.4501 18.5257C12.5138 18.5257 14.4322 17.7952 15.8468 16.5093L15.8727 16.4857L15.895 16.4588C15.9929 16.341 16.1015 16.2325 16.2193 16.1346L16.237 16.1199L16.2533 16.1036L16.3431 16.0137L16.3492 16.0076L16.3551 16.0014C17.7024 14.5578 18.4658 12.6079 18.4658 10.51C18.4658 6.07177 14.9183 2.52424 10.4801 2.52424Z"  stroke="current"/>
</svg>
