<svg width="241" height="45" viewBox="0 0 241 45" fill="none" xmlns="http://www.w3.org/2000/svg">
<g filter="url(#filter0_d_409_76)">
<path d="M16.5711 16.92H28.8911V24.04H16.5711V16.92ZM17.2111 33H7.77114C7.77114 33 -0.713931 11.8971 7.77114 4.99999C14.6683 -0.606408 30.5311 4.99999 30.5311 4.99999V12.12H17.2111V33Z" fill="#FFA800"/>
<path d="M42.1533 15.4H54.6333V22.2H42.1533V15.4ZM42.7933 25.88H56.7933V33H33.5133V4.99999C33.5133 4.99999 53.6196 -3.48295 56.2733 4.99999C57.1035 7.65371 56.2733 12.12 56.2733 12.12H42.7933V25.88Z" fill="#FFA800"/>
<path d="M57.3874 33L69.6274 4.99999H78.9074L91.1474 33H81.3874L72.3474 9.47999H76.0274C76.0274 9.47999 76.3787 30.0618 66.9874 33C63.4094 34.1194 57.3874 33 57.3874 33ZM64.6674 28.12L67.0674 21.32H79.9474L82.3474 28.12H64.6674Z" fill="#FFA800"/>
<path d="M97.3277 33V12.32H89.1277V4.99999H114.968V12.32C114.968 12.32 109.745 11.1396 106.768 12.32C99.2603 15.2968 106.768 33 106.768 33H97.3277Z" fill="#FFA800"/>
<path d="M130.429 33.64C126.136 33.64 122.789 32.48 120.389 30.16C117.989 27.84 116.789 24.5867 116.789 20.4V4.99999H126.229V20.12C126.229 22.2533 126.616 23.7733 127.389 24.68C128.162 25.56 129.202 26 130.509 26C131.842 26 132.882 25.56 133.629 24.68C134.402 23.7733 134.789 22.2533 134.789 20.12C134.789 20.12 129.757 8.0887 134.789 4.99999C137.878 3.10428 144.069 4.99999 144.069 4.99999V20.4C144.069 24.5867 142.869 27.84 140.469 30.16C138.069 32.48 134.722 33.64 130.429 33.64Z" fill="#FFA800"/>
<path d="M148.396 33C148.396 33 138.544 9.7432 148.396 4.99999C153.139 2.71648 161.876 4.99999 161.876 4.99999C164.489 4.99999 166.743 5.42666 168.636 6.27999C170.556 7.13333 172.036 8.35999 173.076 9.95999C174.116 11.5333 174.636 13.4 174.636 15.56C174.636 17.72 174.116 19.5867 173.076 21.16C172.036 22.7067 170.556 23.8933 168.636 24.72C166.743 25.5467 164.489 25.96 161.876 25.96H153.636L157.836 22.08V33H148.396ZM165.156 33L158.276 22.8H168.276L175.236 33H165.156ZM157.836 23.12L153.636 18.84C153.636 18.84 159.969 18.84 161.276 18.84C162.583 18.84 163.543 18.5467 164.156 17.96C164.796 17.3733 165.116 16.5733 165.116 15.56C165.116 14.5467 164.796 13.7467 164.156 13.16C163.543 12.5733 162.583 12.28 161.276 12.28H153.636L157.836 7.99999V23.12Z" fill="#FFA800"/>
<path d="M186.841 15.4H199.321V22.2H186.841V15.4ZM187.481 25.88H201.481C201.481 25.88 202.294 30.341 201.481 33C198.822 41.6939 178.201 33 178.201 33V4.99999H200.961V12.12H187.481V25.88Z" fill="#FFA800"/>
<path d="M205.115 33C205.115 33 195.307 9.83401 205.115 4.99999C209.949 2.61752 218.915 4.99999 218.915 4.99999C222.035 4.99999 224.782 5.57333 227.155 6.71999C229.528 7.83999 231.382 9.44 232.715 11.52C234.048 13.6 234.715 16.08 234.715 18.96C234.715 21.8667 234.048 24.3733 232.715 26.48C231.382 28.56 229.528 30.1733 227.155 31.32C224.782 32.44 222.035 33 218.915 33H205.115ZM214.555 25.64H218.515C219.848 25.64 221.008 25.3867 221.995 24.88C223.008 24.3733 223.795 23.6267 224.355 22.64C224.915 21.6267 225.195 20.4 225.195 18.96C225.195 17.5467 224.915 16.3467 224.355 15.36C223.795 14.3733 223.008 13.6267 221.995 13.12C221.008 12.6133 219.848 12.36 218.515 12.36H214.555V25.64Z" fill="#FFA800"/>
<path d="M18.0624 15.6902H30.3824V22.8102H18.0624V15.6902ZM18.7024 31.7702H9.26236C9.26236 31.7702 0.77728 10.6674 9.26236 3.7702C16.1595 -1.83621 32.0224 3.7702 32.0224 3.7702V10.8902H18.7024V31.7702Z" fill="#DADADA"/>
<path d="M43.6445 14.1702H56.1245V20.9702H43.6445V14.1702ZM44.2845 24.6502H58.2845V31.7702H35.0045V3.7702C35.0045 3.7702 55.1108 -4.71274 57.7645 3.7702C58.5947 6.42391 57.7645 10.8902 57.7645 10.8902H44.2845V24.6502Z" fill="#DADADA"/>
<path d="M58.8786 31.7702L71.1186 3.7702H80.3986L92.6386 31.7702H82.8786L73.8386 8.2502H77.5186C77.5186 8.2502 77.8699 28.832 68.4786 31.7702C64.9006 32.8896 58.8786 31.7702 58.8786 31.7702ZM66.1586 26.8902L68.5586 20.0902H81.4386L83.8386 26.8902H66.1586Z" fill="#DADADA"/>
<path d="M98.8189 31.7702V11.0902H90.6189V3.7702H116.459V11.0902C116.459 11.0902 111.236 9.90983 108.259 11.0902C100.752 14.067 108.259 31.7702 108.259 31.7702H98.8189Z" fill="#DADADA"/>
<path d="M131.92 32.4102C127.627 32.4102 124.28 31.2502 121.88 28.9302C119.48 26.6102 118.28 23.3569 118.28 19.1702V3.7702H127.72V18.8902C127.72 21.0235 128.107 22.5435 128.88 23.4502C129.654 24.3302 130.694 24.7702 132 24.7702C133.334 24.7702 134.374 24.3302 135.12 23.4502C135.894 22.5435 136.28 21.0235 136.28 18.8902C136.28 18.8902 131.248 6.8589 136.28 3.7702C139.369 1.87448 145.56 3.7702 145.56 3.7702V19.1702C145.56 23.3569 144.36 26.6102 141.96 28.9302C139.56 31.2502 136.214 32.4102 131.92 32.4102Z" fill="#DADADA"/>
<path d="M149.887 31.7702C149.887 31.7702 140.035 8.51341 149.887 3.7702C154.631 1.48668 163.367 3.7702 163.367 3.7702C165.981 3.7702 168.234 4.19686 170.127 5.0502C172.047 5.90353 173.527 7.1302 174.567 8.7302C175.607 10.3035 176.127 12.1702 176.127 14.3302C176.127 16.4902 175.607 18.3569 174.567 19.9302C173.527 21.4769 172.047 22.6635 170.127 23.4902C168.234 24.3169 165.981 24.7302 163.367 24.7302H155.127L159.327 20.8502V31.7702H149.887ZM166.647 31.7702L159.767 21.5702H169.767L176.727 31.7702H166.647ZM159.327 21.8902L155.127 17.6102C155.127 17.6102 161.461 17.6102 162.767 17.6102C164.074 17.6102 165.034 17.3169 165.647 16.7302C166.287 16.1435 166.607 15.3435 166.607 14.3302C166.607 13.3169 166.287 12.5169 165.647 11.9302C165.034 11.3435 164.074 11.0502 162.767 11.0502H155.127L159.327 6.7702V21.8902Z" fill="#DADADA"/>
<path d="M188.332 14.1702H200.812V20.9702H188.332V14.1702ZM188.972 24.6502H202.972C202.972 24.6502 203.785 29.1112 202.972 31.7702C200.313 40.4641 179.692 31.7702 179.692 31.7702V3.7702H202.452V10.8902H188.972V24.6502Z" fill="#DADADA"/>
<path d="M206.606 31.7702C206.606 31.7702 196.798 8.60421 206.606 3.7702C211.44 1.38772 220.406 3.7702 220.406 3.7702C223.526 3.7702 226.273 4.34353 228.646 5.4902C231.019 6.6102 232.873 8.2102 234.206 10.2902C235.539 12.3702 236.206 14.8502 236.206 17.7302C236.206 20.6369 235.539 23.1435 234.206 25.2502C232.873 27.3302 231.019 28.9435 228.646 30.0902C226.273 31.2102 223.526 31.7702 220.406 31.7702H206.606ZM216.046 24.4102H220.006C221.339 24.4102 222.499 24.1569 223.486 23.6502C224.499 23.1435 225.286 22.3969 225.846 21.4102C226.406 20.3969 226.686 19.1702 226.686 17.7302C226.686 16.3169 226.406 15.1169 225.846 14.1302C225.286 13.1435 224.499 12.3969 223.486 11.8902C222.499 11.3835 221.339 11.1302 220.006 11.1302H216.046V24.4102Z" fill="#DADADA"/>
</g>
<defs>
<filter id="filter0_d_409_76" x="0" y="0" width="240.206" height="44.864" filterUnits="userSpaceOnUse" color-interpolation-filters="sRGB">
<feFlood flood-opacity="0" result="BackgroundImageFix"/>
<feColorMatrix in="SourceAlpha" type="matrix" values="0 0 0 0 0 0 0 0 0 0 0 0 0 0 0 0 0 0 127 0" result="hardAlpha"/>
<feOffset dy="4"/>
<feGaussianBlur stdDeviation="2"/>
<feComposite in2="hardAlpha" operator="out"/>
<feColorMatrix type="matrix" values="0 0 0 0 0 0 0 0 0 0 0 0 0 0 0 0 0 0 0.25 0"/>
<feBlend mode="normal" in2="BackgroundImageFix" result="effect1_dropShadow_409_76"/>
<feBlend mode="normal" in="SourceGraphic" in2="effect1_dropShadow_409_76" result="shape"/>
</filter>
</defs>
</svg>
